<?xml version="1.0" encoding="utf-8"?>
<!-- Generator: Adobe Illustrator 19.0.0, SVG Export Plug-In . SVG Version: 6.00 Build 0)  -->
<svg version="1.1" id="Layer_1" xmlns="http://www.w3.org/2000/svg" xmlns:xlink="http://www.w3.org/1999/xlink" x="0px" y="0px"
	 viewBox="-300.6 308.8 186.3 176.4" style="enable-background:new -300.6 308.8 186.3 176.4;" xml:space="preserve">
<path d="M-286.5,337.1h15.3l8.2,24.6v0.2l18.6,55.7l7.6,22.9c-7.3,2.6-12.5,9.5-12.5,17.5c0,10.2,8.4,18.6,18.6,18.6
	c10.2,0,18.6-8.4,18.6-18.6c0-3.4-0.9-6.5-2.6-9.3l46.9,0c-1.7,2.8-2.6,6-2.6,9.3c0,10.2,8.4,18.6,18.6,18.6
	c10.2,0,18.6-8.4,18.6-18.6c0-10.2-8.4-18.6-18.6-18.6l-75.8,0l-6.1-18.6l16.8,0l0,0l0,0l46.6,0l0,0l0,0h23.3c2,0,3.7-1.3,4.5-3.2
	l18.6-55.9c0.6-1.5,0.2-3-0.6-4.3c-0.9-1.3-2.2-1.9-3.7-1.9l-97.6,0l0,0l-29.4,0l-8.2-24.8c-0.6-1.9-2.4-3.2-4.5-3.2l-18.6,0
	c-2.6,0-4.7,2-4.7,4.7C-291.2,334.9-289.1,337.1-286.5,337.1z M-188.7,411.6l0-18.6l17.7,0l-3.2,18.6H-188.7z M-188.7,383.7l0-18.6
	h22.3l-3.2,18.6L-188.7,383.7z M-198,383.7h-19.4l-3.2-18.6l22.3,0v18.6H-198z M-198,393l0,18.6l-14.7,0l-3.2-18.6H-198z
	 M-222.2,411.6h-14.3l-6.1-18.6h17.5L-222.2,411.6z M-221.3,458.2c0,5.2-4.1,9.3-9.3,9.3c-5.2,0-9.3-4.1-9.3-9.3s4.1-9.3,9.3-9.3
	S-221.3,452.9-221.3,458.2z M-142.2,458.2c0,5.2-4.1,9.3-9.3,9.3c-5.2,0-9.3-4.1-9.3-9.3c0-5.2,4.1-9.3,9.3-9.3
	C-146.3,448.9-142.2,452.9-142.2,458.2z M-150.2,411.6l-14.3,0l3.2-18.6h17.5L-150.2,411.6z M-140.9,383.7l-19,0l3.2-18.6h22.2
	L-140.9,383.7z M-229.9,365l3.2,18.6l-19,0l-6.1-18.6L-229.9,365z"/>
</svg>
